<?xml version="1.0" encoding="UTF-8"?>
<svg width="16px" height="11px" viewBox="0 0 16 11" version="1.1" xmlns="http://www.w3.org/2000/svg" xmlns:xlink="http://www.w3.org/1999/xlink">
    <title>902494BA-B8AF-412A-85B3-7668D7F9D915@1x</title>
    <g id="Homepage-&amp;-program-detail" stroke="none" stroke-width="1" fill="none" fill-rule="evenodd">
        <g id="Imagery" transform="translate(-1075.000000, -202.000000)" fill="#ffffff" fill-rule="nonzero">
            <g id="Icon" transform="translate(1075.000000, 202.000000)">
                <circle id="Icon-Oval" cx="4.74012" cy="3.24324" r="2.24532"></circle>
                <path d="M7.29729,6.73596 C6.4191204,6.2900145 5.4498906,6.11226 4.74012,6.11226 C3.3498927,6.11226 0.49896,6.9648579 0.49896,8.66943 L0.49896,9.9792 L5.17671,9.9792 L5.17671,9.47805705 C5.17671,8.88554205 5.42619,8.2914678 5.86278,7.79625 C6.21111645,7.4008242 6.69884985,7.03377675 7.29729,6.73596 Z" id="Icon-Path"></path>
                <path d="M10.6029,6.48648 C8.97909705,6.48648 5.73804,7.4893896 5.73804,9.48024 L5.73804,10.97712 L15.46776,10.97712 L15.46776,9.48024 C15.46776,7.4893896 12.2267029,6.48648 10.6029,6.48648 Z" id="Icon-Path"></path>
                <circle id="Icon-Oval" cx="10.6029" cy="2.74428" r="2.74428"></circle>
            </g>
        </g>
    </g>
</svg>